<?xml version="1.0" encoding="UTF-8"?>
<svg width="16px" height="16px" viewBox="0 0 16 16" version="1.1" xmlns="http://www.w3.org/2000/svg" xmlns:xlink="http://www.w3.org/1999/xlink">
    <title>矩形</title>
    <g id="页面-1" stroke="none" stroke-width="1" fill="none" fill-rule="evenodd">
        <g id="享购严选" transform="translate(-300.000000, -719.000000)">
            <g id="推荐好店" transform="translate(12.000000, 700.000000)">
                <g id="按钮" transform="translate(279.000000, 15.000000)">
                    <g id="编组-15" transform="translate(9.500000, 4.500000)">
                        <rect id="矩形" fill="#D8D8D8" opacity="0" x="0" y="0" width="15" height="15"></rect>
                        <path d="M9.82226136,2.7518813 L9.98666666,2.75209513 C10.7524856,2.77328012 11.5104894,3.07697572 12.0920067,3.65856046 C12.6729517,4.23942235 12.9767954,4.99648702 12.9987203,5.76162999 C13.0205241,6.52254441 12.7635165,7.29144809 12.2229594,7.90298857 L12.2229594,7.90298857 L7.49983501,12.6327966 L2.7777857,7.9029496 C2.23650404,7.29103655 1.97927527,6.52143161 2.00130412,5.75990481 C2.02345431,4.99418338 2.32794702,4.23662933 2.90990729,3.6557671 C3.49186757,3.07490486 4.24999532,2.7718434 5.01575722,2.75113936 C5.78151912,2.73043533 6.55491517,2.99208873 7.16741202,3.54065623 C8.44721359,2.99223574 9.2208477,2.73091013 9.98666666,2.75209513 Z" id="路径" stroke="#FF3B30" fill-rule="nonzero"></path>
                    </g>
                </g>
            </g>
        </g>
    </g>
</svg>