<?xml version="1.0" encoding="UTF-8"?>
<svg width="16px" height="16px" viewBox="0 0 16 16" version="1.1" xmlns="http://www.w3.org/2000/svg" xmlns:xlink="http://www.w3.org/1999/xlink">
    <title>编组 4</title>
    <g id="页面-1" stroke="none" stroke-width="1" fill="none" fill-rule="evenodd">
        <g id="享购严选" transform="translate(-23.000000, -719.000000)">
            <g id="推荐好店" transform="translate(12.000000, 700.000000)">
                <g id="编组-4" transform="translate(12.000000, 19.500000)">
                    <rect id="矩形" fill="#D8D8D8" opacity="0" x="0" y="0" width="15" height="15"></rect>
                    <path d="M11.7711712,0.500002314 C12.4748902,0.498856329 13.1094354,0.923398052 13.3768355,1.57432292 L14.8669618,5.20728282 C15.0036649,5.53006629 15.0359931,5.88752212 14.9594193,6.22959427 C14.7655867,7.07790755 14.1116616,7.74522447 13.2677397,7.95630757 L13.267141,13.1084923 C13.2811239,13.5813312 13.1062023,14.0402674 12.781046,14.3838449 C12.4558896,14.7274223 12.0072788,14.9273433 11.5343871,14.9394117 L3.44833044,14.9394117 C2.9754348,14.9273553 2.5268169,14.727438 2.20165796,14.3838578 C1.87649902,14.0402777 1.70158155,13.5813345 1.71557661,13.1084923 L1.71491126,7.93632152 C0.898290943,7.72698077 0.241612507,7.08022959 0.0405579271,6.22959427 C-0.0359823004,5.88751994 -0.00365506685,5.53007445 0.133015385,5.20728282 L1.60585953,1.57432292 C1.87323711,0.923398052 2.50778225,0.498856329 3.21152384,0.500002314 L11.7711712,0.500002314 Z M10.9567649,7.2230043 C10.5182223,7.72029911 9.88714115,8.00518421 9.22410134,8.00517002 C8.56103132,8.00520426 7.92991453,7.72031791 7.49134751,7.2230043 C7.05277161,7.72030588 6.42166056,8.00518965 5.75859368,8.00517002 C5.09553404,8.00518609 4.46443133,7.72030239 4.02586241,7.2230043 C3.71782069,7.57365546 3.31418789,7.81923285 2.87092411,7.93436747 L2.87070823,13.1084923 C2.84735697,13.4533464 3.10399523,13.7536188 3.44833044,13.78428 L11.5343646,13.78428 C11.8473966,13.7564062 12.0879518,13.5057132 12.1115579,13.201269 L12.1114355,7.94723327 C11.6706059,7.82956933 11.2659548,7.58186811 10.9567649,7.2230043 Z M11.7711712,1.65512407 L3.21152384,1.65512407 C2.97625258,1.6539597 2.76377641,1.79559561 2.67435458,2.01321382 L1.18422825,5.64626397 C1.13959273,5.74586637 1.12744447,5.85699256 1.14950594,5.96388624 C1.20507385,6.44435912 1.54746869,6.82189433 1.9858893,6.94522452 C2.07445875,6.88590372 2.17998644,6.85337752 2.29310858,6.85337752 C2.40812408,6.85337752 2.5152833,6.88698736 2.60530142,6.94491903 C3.14707589,6.79910106 3.51479554,6.2735798 3.44833044,5.69815566 C3.44833044,5.37922481 3.706909,5.12064625 4.02586241,5.12064625 C4.34488351,5.12064625 4.60346206,5.37922481 4.60346206,5.69815566 C4.60346206,6.33615273 5.12061917,6.85337752 5.75859368,6.85337752 C6.39659075,6.85337752 6.91374786,6.33615273 6.91374786,5.69815566 C6.91374786,5.37922481 7.17230385,5.12064625 7.49134751,5.12064625 C7.81030092,5.12064625 8.06887948,5.37922481 8.06887948,5.69815566 C8.06887948,6.33615273 8.58612684,6.85337752 9.22410134,6.85337752 C9.86207585,6.85337752 10.379233,6.33615273 10.379233,5.69815566 C10.379233,5.37922481 10.6378115,5.12064625 10.9567649,5.12064625 C11.2758086,5.12064625 11.5343871,5.37922481 11.5343871,5.69815566 C11.4682722,6.27341635 11.8338515,6.79878504 12.3740766,6.95036285 C12.4642574,6.88797584 12.572849,6.85337752 12.6895188,6.85337752 C12.8066414,6.85337752 12.9156153,6.88822519 13.0066393,6.94811472 C13.446022,6.82557447 13.7892299,6.44627494 13.8446729,5.96388624 C13.8667833,5.8569668 13.8546226,5.74585089 13.8100409,5.64626397 L12.3083404,2.01321382 C12.2188986,1.79561202 12.006435,1.6539845 11.7711712,1.65512407 Z M9.80161075,2.81027021 C10.1206544,2.81027021 10.379233,3.06893901 10.379233,3.38789242 C10.379233,3.70684583 10.1206544,3.96549207 9.80161075,3.96549207 L5.18099403,3.96549207 C4.86204062,3.96549207 4.60346206,3.70684583 4.60346206,3.38789242 C4.60346206,3.06893901 4.86204062,2.81027021 5.18099403,2.81027021 L9.80161075,2.81027021 Z" id="形状结合" fill="#555555" fill-rule="nonzero"></path>
                </g>
            </g>
        </g>
    </g>
</svg>