<?xml version="1.0" encoding="UTF-8"?>
<svg width="15px" height="15px" viewBox="0 0 15 15" version="1.1" xmlns="http://www.w3.org/2000/svg" xmlns:xlink="http://www.w3.org/1999/xlink">
    <title>编组</title>
    <g id="页面-1" stroke="none" stroke-width="1" fill="none" fill-rule="evenodd">
        <g id="住宿餐饮" transform="translate(-17.000000, -444.000000)" fill="#FFFFFF" fill-rule="nonzero">
            <g id="1" transform="translate(12.000000, 439.000000)">
                <g id="编组" transform="translate(5.000000, 4.000000)">
                    <g transform="translate(0.000000, 0.500000)">
                        <polygon id="路径" fill-opacity="0" points="1 1 13 1 13 13 1 13"></polygon>
                        <path d="M7.25,3.5 C9.32106781,3.5 11,5.17893219 11,7.25 C11,9.131 9.74975,11.006 7.25,12.875 C4.75025,11.006 3.5,9.131 3.5,7.25 C3.5,5.17893219 5.17893219,3.5 7.25,3.5 Z M7.25,5.375 C6.21446609,5.375 5.375,6.21446609 5.375,7.25 C5.375,8.28553391 6.21446609,9.125 7.25,9.125 C8.28553391,9.125 9.125,8.28553391 9.125,7.25 C9.125,6.21446609 8.28553391,5.375 7.25,5.375 Z" id="形状"></path>
                    </g>
                </g>
            </g>
        </g>
    </g>
</svg>