<?xml version="1.0" encoding="UTF-8"?>
<svg width="68px" height="67px" viewBox="0 0 68 67" version="1.1" xmlns="http://www.w3.org/2000/svg" xmlns:xlink="http://www.w3.org/1999/xlink">
    <title>编组 4</title>
    <defs>
        <linearGradient x1="50%" y1="0%" x2="50%" y2="100%" id="linearGradient-1">
            <stop stop-color="#A4CCFF" offset="0%"></stop>
            <stop stop-color="#839CFE" offset="100%"></stop>
        </linearGradient>
        <filter x="-28.6%" y="-35.7%" width="157.1%" height="174.1%" filterUnits="objectBoundingBox" id="filter-2">
            <feOffset dx="0" dy="0" in="SourceAlpha" result="shadowOffsetOuter1"></feOffset>
            <feGaussianBlur stdDeviation="2" in="shadowOffsetOuter1" result="shadowBlurOuter1"></feGaussianBlur>
            <feColorMatrix values="0 0 0 0 0.488699362   0 0 0 0 0.64272887   0 0 0 0 0.84168365  0 0 0 1 0" type="matrix" in="shadowBlurOuter1" result="shadowMatrixOuter1"></feColorMatrix>
            <feMerge>
                <feMergeNode in="shadowMatrixOuter1"></feMergeNode>
                <feMergeNode in="SourceGraphic"></feMergeNode>
            </feMerge>
        </filter>
    </defs>
    <g id="页面-1" stroke="none" stroke-width="1" fill="none" fill-rule="evenodd">
        <g id="享购严选" transform="translate(-284.000000, -198.000000)">
            <g id="编组-8" transform="translate(10.000000, 183.000000)">
                <g id="编组" transform="translate(13.500000, 15.000000)">
                    <g id="编组-4" transform="translate(261.000000, 0.000000)">
                        <rect id="矩形" fill-opacity="0.15" fill="#75B1FE" transform="translate(33.500000, 33.500000) rotate(-345.000000) translate(-33.500000, -33.500000) " x="6.5" y="6.5" width="54" height="54" rx="16"></rect>
                        <rect id="矩形" fill="url(#linearGradient-1)" x="8.5" y="8.5" width="50" height="50" rx="16"></rect>
                        <g id="编组" filter="url(#filter-2)" transform="translate(19.500000, 21.500000)" fill="#FFFFFF" fill-rule="nonzero">
                            <path d="M25.9732056,22.1943651 L2.01227416,22.1943651 C1.01194848,22.1943651 0.193476325,21.4593533 0.193476325,20.5610318 C0.193476325,19.6627103 1.01194848,18.9276984 2.01227416,18.9276984 L25.9732493,18.9276984 C26.973575,18.9276984 27.7920471,19.6627102 27.7920471,20.5610318 C27.7920471,21.4593533 26.9735749,22.1943651 25.9732056,22.1943651 Z M25.9732056,17.2739979 L2.01227416,17.2739979 C1.01194848,17.2739979 0.193476325,16.4555257 0.193476325,15.4552001 C0.193476325,14.4548745 1.01194848,13.6364023 2.01227416,13.6364023 L25.9732493,13.6364023 C26.973575,13.6364023 27.7920471,14.4548744 27.7920471,15.4552001 C27.7920471,16.4555258 26.9735749,17.2739979 25.9732056,17.2739979 Z M13.9927399,0.0687636396 C16.0063808,0.0687636396 17.6387327,1.96707316 17.6387327,4.30877647 C16.5279077,4.31337683 15.6165247,4.3162724 14.8301837,4.31776692 L14.2627107,4.31862987 C14.171652,4.31873149 14.0822564,4.31881241 13.9943786,4.31887322 L13.240537,4.3188935 C13.1604584,4.31883897 13.0814618,4.31876612 13.0034018,4.31867553 L12.5451181,4.31792387 C12.3953282,4.31760553 12.2481223,4.31722098 12.1023376,4.31677496 L11.6680853,4.3152573 C11.235772,4.31356474 10.8057884,4.31136175 10.3467469,4.30877647 C10.3467469,1.96707321 11.9790989,0.0687636396 13.9927399,0.0687636396 Z M13.9927399,1.96829777 C13.0896826,1.96829777 12.3575887,2.86426977 12.3575887,3.96956141 C12.4733903,3.97025025 12.5850683,3.970881 12.6951283,3.97144316 L13.0229595,3.97291335 C13.1322888,3.97332782 13.2425055,3.97366318 13.3561149,3.97390894 L14.3109472,3.97390782 C14.6765275,3.97323796 15.1024597,3.97184388 15.627891,3.96956141 C15.627891,2.86431352 14.8957971,1.96829777 13.9927399,1.96829777 Z" id="形状"></path>
                            <path d="M13.9927836,3.80760771 C20.5886263,3.80760771 25.935549,8.33999448 25.935549,13.9310505 C21.8421241,13.9433986 18.5755152,13.9506004 15.7887303,13.9536862 L14.924238,13.954525 C14.7826794,13.9546425 14.6423487,13.9547488 14.5031955,13.9548441 L10.9952818,13.954867 C10.8732238,13.9547774 10.7518878,13.9546782 10.6312232,13.9545695 L9.91488936,13.9538054 C8.73308033,13.952347 7.60830263,13.9499736 6.48996697,13.9468356 L5.81933391,13.9448623 L5.81933391,13.9448623 L5.14781865,13.9427126 C4.13866998,13.9393595 3.11834842,13.9354356 2.04997441,13.9310505 C2.04997441,8.34003819 7.39694082,3.80760771 13.9927836,3.80760771 Z M7.66615392,10.0408204 C7.02182171,10.0408204 6.49948725,10.5631548 6.49948725,11.207487 C6.49948725,11.8518192 7.02182171,12.3741537 7.66615392,12.3741537 C8.31048613,12.3741537 8.83282059,11.8518192 8.83282059,11.207487 C8.83282059,10.5631548 8.31048613,10.0408204 7.66615392,10.0408204 Z M14.7078478,6.11947764 C14.2247553,6.11947764 13.8331314,6.51110152 13.8331314,6.99419405 C13.8331314,7.47728659 14.2247553,7.86891047 14.7078478,7.86891047 C15.1909404,7.86891047 15.5825643,7.47728659 15.5825643,6.99419405 C15.5825643,6.51110152 15.1909404,6.11947764 14.7078478,6.11947764 Z" id="形状结合"></path>
                        </g>
                    </g>
                </g>
            </g>
        </g>
    </g>
</svg>