<?xml version="1.0" encoding="UTF-8"?>
<svg width="68px" height="67px" viewBox="0 0 68 67" version="1.1" xmlns="http://www.w3.org/2000/svg" xmlns:xlink="http://www.w3.org/1999/xlink">
    <title>编组 4</title>
    <defs>
        <linearGradient x1="50%" y1="0%" x2="50%" y2="100%" id="linearGradient-1">
            <stop stop-color="#A5F5FF" offset="0%"></stop>
            <stop stop-color="#5BCDD7" offset="100%"></stop>
        </linearGradient>
        <filter x="-30.8%" y="-40.3%" width="161.5%" height="181.4%" filterUnits="objectBoundingBox" id="filter-2">
            <feOffset dx="0" dy="0" in="SourceAlpha" result="shadowOffsetOuter1"></feOffset>
            <feGaussianBlur stdDeviation="2" in="shadowOffsetOuter1" result="shadowBlurOuter1"></feGaussianBlur>
            <feColorMatrix values="0 0 0 0 0.271439346   0 0 0 0 0.734665485   0 0 0 0 0.773267663  0 0 0 1 0" type="matrix" in="shadowBlurOuter1" result="shadowMatrixOuter1"></feColorMatrix>
            <feMerge>
                <feMergeNode in="shadowMatrixOuter1"></feMergeNode>
                <feMergeNode in="SourceGraphic"></feMergeNode>
            </feMerge>
        </filter>
    </defs>
    <g id="页面-1" stroke="none" stroke-width="1" fill="none" fill-rule="evenodd">
        <g id="享购严选" transform="translate(-197.000000, -198.000000)">
            <g id="编组-8" transform="translate(10.000000, 183.000000)">
                <g id="编组" transform="translate(13.500000, 15.000000)">
                    <g id="编组-4" transform="translate(174.000000, 0.000000)">
                        <rect id="矩形" fill-opacity="0.15" fill="#4FF1FF" transform="translate(33.500000, 33.500000) rotate(-345.000000) translate(-33.500000, -33.500000) " x="6.5" y="6.5" width="54" height="54" rx="16"></rect>
                        <rect id="矩形" fill="url(#linearGradient-1)" x="8.5" y="8.5" width="50" height="50" rx="16"></rect>
                        <g id="编组" filter="url(#filter-2)" transform="translate(20.500000, 24.000000)" fill="#FFFFFF" fill-rule="nonzero">
                            <path d="M25.7507763,4.78442763 L25.7507763,1.07326974 C25.7507763,0.482111842 25.2745658,0.00590131579 24.6834079,0.00590131579 L1.10277632,0.00590131579 C0.511618421,0.00590131579 0.0354078947,0.482111842 0.0354078947,1.07326974 C0.0846710526,3.81558553 0.0846710526,4.01263816 0.0846710526,4.78442763 C0.0846710526,4.91579605 0.183197368,5.03074342 0.314565789,5.03074342 C2.82698684,5.14569079 4.92888158,7.21474342 4.92888158,9.74358553 C4.92888158,12.2724276 2.76130263,14.3414803 0.248881579,14.4564276 C0.117513158,14.4564276 0.0189868421,14.571375 0.0189868421,14.7027434 L0.0189868421,18.4139013 C0.0189868421,19.0050592 0.495197368,19.4812697 1.08635526,19.4812697 L24.6669868,19.4812697 C25.2581447,19.4812697 25.7343553,19.0050592 25.7343553,18.4139013 L25.7343553,14.7027434 C25.7343553,14.571375 25.6358289,14.4564276 25.5044605,14.4564276 C23.0084605,14.3414803 20.9886711,12.2724276 20.9886711,9.74358553 C20.9886711,7.21474342 23.0084605,5.14569079 25.5044605,5.03074342 C25.65225,5.03074342 25.7507763,4.91579605 25.7507763,4.78442763 Z M16.2265658,13.6654803 L9.70740789,13.6654803 C9.42825,13.6654803 9.21477632,13.4520066 9.21477632,13.1728487 C9.21477632,12.8936908 9.42825,12.6802171 9.70740789,12.6802171 L16.2265658,12.6802171 C16.4893026,12.6802171 16.7191974,12.8936908 16.7191974,13.1728487 C16.7191974,13.4520066 16.5057237,13.6654803 16.2265658,13.6654803 L16.2265658,13.6654803 Z M15.2248816,14.5795855 C15.5040395,14.5795855 15.7175132,14.7930592 15.7175132,15.0722171 C15.7175132,15.351375 15.4876184,15.5648487 15.2248816,15.5648487 L10.7255132,15.5648487 C10.4463553,15.5648487 10.2328816,15.351375 10.2328816,15.0722171 C10.2328816,14.7930592 10.4463553,14.5795855 10.7255132,14.5795855 L15.2248816,14.5795855 Z M11.8093026,5.27705921 L13.1886711,7.78948026 C13.2707763,7.93726974 13.4514079,7.95369079 13.5663553,7.85516447 L14.5844605,6.88632237 C14.6994079,6.771375 14.8800395,6.80421711 14.9621447,6.93558553 L17.5566711,11.1229539 C17.6551974,11.2871645 17.54025,11.5006382 17.3431974,11.5006382 L9.70740789,11.4842171 L8.44298684,11.4842171 C8.26235526,11.4842171 8.13098684,11.2871645 8.22951316,11.1229539 L11.3823553,5.27705921 C11.4808816,5.11284868 11.7271974,5.09642763 11.8093026,5.27705921 Z" id="形状"></path>
                        </g>
                    </g>
                </g>
            </g>
        </g>
    </g>
</svg>