<?xml version="1.0" encoding="UTF-8"?>
<svg width="68px" height="67px" viewBox="0 0 68 67" version="1.1" xmlns="http://www.w3.org/2000/svg" xmlns:xlink="http://www.w3.org/1999/xlink">
    <title>编组 4</title>
    <defs>
        <linearGradient x1="50%" y1="0%" x2="50%" y2="99.6339598%" id="linearGradient-1">
            <stop stop-color="#9AC7FD" offset="0%"></stop>
            <stop stop-color="#AE9CFF" offset="100%"></stop>
        </linearGradient>
        <filter x="-33.3%" y="-36.4%" width="166.7%" height="172.7%" filterUnits="objectBoundingBox" id="filter-2">
            <feOffset dx="0" dy="0" in="SourceAlpha" result="shadowOffsetOuter1"></feOffset>
            <feGaussianBlur stdDeviation="2" in="shadowOffsetOuter1" result="shadowBlurOuter1"></feGaussianBlur>
            <feColorMatrix values="0 0 0 0 0.584447903   0 0 0 0 0.535730675   0 0 0 0 0.869791667  0 0 0 1 0" type="matrix" in="shadowBlurOuter1" result="shadowMatrixOuter1"></feColorMatrix>
            <feMerge>
                <feMergeNode in="shadowMatrixOuter1"></feMergeNode>
                <feMergeNode in="SourceGraphic"></feMergeNode>
            </feMerge>
        </filter>
    </defs>
    <g id="页面-1" stroke="none" stroke-width="1" fill="none" fill-rule="evenodd">
        <g id="享购严选" transform="translate(-110.000000, -198.000000)">
            <g id="编组-8" transform="translate(10.000000, 183.000000)">
                <g id="编组" transform="translate(13.500000, 15.000000)">
                    <g id="编组-4" transform="translate(87.000000, 0.000000)">
                        <rect id="矩形" fill-opacity="0.15" fill="#ABA5FF" transform="translate(33.500000, 33.500000) rotate(-345.000000) translate(-33.500000, -33.500000) " x="6.5" y="6.5" width="54" height="54" rx="16"></rect>
                        <rect id="矩形" fill="url(#linearGradient-1)" x="8.5" y="8.5" width="50" height="50" rx="16"></rect>
                        <g id="编组" filter="url(#filter-2)" transform="translate(21.500000, 22.500000)" fill="#FFFFFF" fill-rule="nonzero">
                            <path d="M21.0020307,13.4774468 C19.6348506,13.4774468 18.4641691,12.6464158 17.985388,11.4751982 C17.4891731,12.6864009 16.3100908,13.4775422 15.0011824,13.4775422 C13.692274,13.4775422 12.5131917,12.6864009 12.0169768,11.4751982 C11.5387318,12.6474881 10.36671,13.4774468 9.0008703,13.4774468 C7.69131717,13.4796606 6.51112895,12.6878149 6.01666467,11.4751982 C5.53815165,12.6474881 4.36666597,13.4774468 3.00055817,13.4774468 C2.68704431,13.4772944 2.37522189,13.4315098 2.07489683,13.341533 L2.07489683,18.8370608 C2.07489683,20.2203254 3.20643941,21.3518679 4.58970397,21.3518679 L19.4142253,21.3518679 C20.7974898,21.3518679 21.9290324,20.2203254 21.9290324,18.8370608 L21.9290324,13.3442138 C21.6284151,13.4326503 21.3167263,13.4777834 21.0033711,13.478251 L21.0020307,13.4774468 Z" id="路径"></path>
                            <path d="M21.8762217,2.97106997 L2.05720391,2.97106997 L0,8.3545426 C0,9.96593857 1.33742381,11.3033624 2.98313334,11.3033624 C4.62884286,11.3033624 6.00058021,10.0005202 6.00058019,8.3545426 C6.00058019,9.96593857 7.33773594,11.3033624 8.98371353,11.3033624 C10.6296911,11.3033624 12.0011604,10.0005202 12.0011604,8.3545426 C12.0011604,9.96593857 13.3385842,11.3033624 14.9842937,11.3033624 C16.6300032,11.3033624 17.9674271,10.0005202 17.967427,8.3545426 C17.967427,9.96593857 19.3045828,11.3033624 20.9848739,11.3033624 C22.6308515,11.3033624 24.0023208,10.0005202 24.0023208,8.3545426 L21.8748813,2.97106997 L21.8762217,2.97106997 Z" id="路径"></path>
                            <path d="M3.42894126,2.05720391 L20.5731114,2.05720391 C21.1561735,2.05720391 21.6017134,1.61139597 21.6017134,1.02860197 C21.6017134,0.445807965 21.1561735,0 20.5731114,0 L3.42894126,0 C2.84587917,0 2.40033932,0.445807944 2.40033932,1.02860197 C2.40033932,1.61139599 2.84587917,2.05720391 3.42894126,2.05720391 Z" id="路径"></path>
                        </g>
                    </g>
                </g>
            </g>
        </g>
    </g>
</svg>