<?xml version="1.0" encoding="UTF-8"?>
<svg width="68px" height="67px" viewBox="0 0 68 67" version="1.1" xmlns="http://www.w3.org/2000/svg" xmlns:xlink="http://www.w3.org/1999/xlink">
    <title>编组 4</title>
    <defs>
        <linearGradient x1="50%" y1="0.729348776%" x2="50%" y2="100%" id="linearGradient-1">
            <stop stop-color="#FFD193" offset="0%"></stop>
            <stop stop-color="#FF8A71" offset="100%"></stop>
        </linearGradient>
        <filter x="-32.0%" y="-33.3%" width="164.0%" height="166.7%" filterUnits="objectBoundingBox" id="filter-2">
            <feOffset dx="0" dy="0" in="SourceAlpha" result="shadowOffsetOuter1"></feOffset>
            <feGaussianBlur stdDeviation="2" in="shadowOffsetOuter1" result="shadowBlurOuter1"></feGaussianBlur>
            <feColorMatrix values="0 0 0 0 0.882133152   0 0 0 0 0.574067728   0 0 0 0 0.472348013  0 0 0 1 0" type="matrix" in="shadowBlurOuter1" result="shadowMatrixOuter1"></feColorMatrix>
            <feMerge>
                <feMergeNode in="shadowMatrixOuter1"></feMergeNode>
                <feMergeNode in="SourceGraphic"></feMergeNode>
            </feMerge>
        </filter>
    </defs>
    <g id="页面-1" stroke="none" stroke-width="1" fill="none" fill-rule="evenodd">
        <g id="享购严选" transform="translate(-23.000000, -198.000000)">
            <g id="编组-8" transform="translate(10.000000, 183.000000)">
                <g id="编组-4" transform="translate(13.500000, 15.000000)">
                    <rect id="矩形" fill-opacity="0.146279502" fill="#FF9D1A" transform="translate(33.500000, 33.500000) rotate(-345.000000) translate(-33.500000, -33.500000) " x="6.5" y="6.5" width="54" height="54" rx="16"></rect>
                    <rect id="矩形" fill="url(#linearGradient-1)" x="8.5" y="8.5" width="50" height="50" rx="16"></rect>
                    <g id="shenghuo" filter="url(#filter-2)" transform="translate(20.500000, 21.500000)" fill="#FFFFFF" fill-rule="nonzero">
                        <path d="M22.9847526,10.1712135 L22.4770273,10.1712135 L20.7835259,22.0826642 C20.7835259,22.6517554 20.3913754,23.1194732 19.908079,23.1194732 L4.10370649,23.1194732 C3.61998119,23.1194732 3.22828222,22.6517554 3.22828222,22.0826642 L1.53478081,10.1712135 L1.05324553,10.1712135 C0.473586506,10.1675751 0.00437197947,9.69895405 0,9.11930009 L0,6.6984158 C0,6.12932455 0.47083349,5.72385325 1.05326811,5.72385325 L22.9847526,5.72385325 C23.5671872,5.72385325 24.0086924,6.12934713 24.0086924,6.6984158 L24.0086924,9.11932267 C24.0086924,9.68841392 23.5671872,10.1712587 22.9847526,10.1712587 L22.9847526,10.1712135 Z M9.07574788,11.9741261 C9.07574788,11.5917742 8.76009031,11.2809934 8.36658514,11.2809934 C7.9744572,11.2809934 7.65656444,11.589539 7.65656444,11.9741261 L7.65656444,18.2461863 C7.65656444,18.6280865 7.9744572,18.9388674 8.36660771,18.9388674 C8.7578777,18.9388674 9.07577046,18.6294186 9.07577046,18.2461863 L9.07577046,11.9741261 L9.07574788,11.9741261 Z M12.7308373,11.9741261 C12.7308373,11.5917742 12.4151797,11.2809934 12.0216971,11.2809934 C11.6295691,11.2809934 11.3116764,11.589539 11.3116764,11.9741261 L11.3116764,18.2461863 C11.3116764,18.6280865 11.6295691,18.9388674 12.0216971,18.9388674 C12.4129671,18.9388674 12.7308598,18.6294186 12.7308598,18.2461863 L12.7308598,11.9741261 L12.7308373,11.9741261 Z M16.3859492,12.0003612 C16.3859492,11.6184384 16.0707206,11.3076802 15.677238,11.3076802 C15.2851101,11.3076802 14.9667658,11.6162258 14.9667658,12.0003612 L14.9667658,18.272873 C14.9667658,18.6547733 15.2851101,18.9655541 15.677238,18.9655541 C16.0680564,18.9655541 16.3859492,18.6561054 16.3859492,18.272873 L16.3859492,12.0003612 Z M12.0212455,1.42275071 C9.26603198,1.42275071 6.91141298,3.08780433 5.96306303,5.46021449 L4.42028975,5.46021449 C5.42950894,2.29729445 8.4510254,0 12.021223,0 C15.5918721,0 18.6129595,2.29727187 19.6226529,5.46021449 L18.079428,5.46021449 C17.1315296,3.08778175 14.7764591,1.42272813 12.0212455,1.42272813 L12.0212455,1.42275071 Z" id="形状"></path>
                    </g>
                </g>
            </g>
        </g>
    </g>
</svg>