<?xml version="1.0" encoding="UTF-8"?>
<svg width="24px" height="24px" viewBox="0 0 24 24" version="1.1" xmlns="http://www.w3.org/2000/svg" xmlns:xlink="http://www.w3.org/1999/xlink">
    <title>矩形</title>
    <g id="页面-1" stroke="none" stroke-width="1" fill="none" fill-rule="evenodd">
        <g id="云上服务" transform="translate(-297.000000, -32.000000)">
            <g id="编组" transform="translate(297.000000, 32.000000)">
                <rect id="矩形" fill="#D8D8D8" opacity="0" x="0" y="0" width="24" height="24"></rect>
                <path d="M21.2449403,7.87557839 L21.3379636,8.12957807 C22.8525987,8.40887174 24,9.73632276 24,11.3317637 C24,12.9124059 22.8737857,14.2300068 21.3800158,14.5259076 C21.1321179,15.269746 20.7934526,15.9884676 20.3677567,16.6641272 C19.1364115,18.6185042 17.2657347,20.0715867 15.0897012,20.7870304 C14.9484123,21.4381357 14.4813216,21.7639245 13.6884422,21.7639245 L10.5527638,21.7639245 C9.5879397,21.7639245 9.10552764,21.2815124 9.10552764,20.3166883 L9.10552764,20.0754823 C9.10552764,19.1106582 9.5879397,18.6282461 10.5527638,18.6282461 L13.6884422,18.6282461 C14.2270174,18.6282461 14.6152734,18.7785654 14.8532101,19.0792039 C17.5696648,18.0735653 19.5844499,15.685639 20.0826158,12.7755979 C20.642247,9.50650737 19.1777357,6.22216221 16.3718593,4.45377374 C13.5655116,2.685866 9.97056177,2.78241451 7.26315139,4.69840365 C4.555741,6.61439279 3.26897793,9.97255099 4.00281408,13.2071406 C4.01694101,13.2693902 4.02379683,13.3315942 4.02394136,13.3928638 C4.07310523,13.4991651 4.10050251,13.618295 4.10050251,13.743824 C4.10050251,14.2100744 3.72253185,14.5880451 3.25628141,14.5880451 C1.45788684,14.5880451 1.09690035e-13,13.1301583 1.09690035e-13,11.3317637 C1.09690035e-13,9.73632276 1.14740126,8.40887174 2.66203635,8.12957807 C3.75054733,5.02386784 6.36453259,2.52966542 9.81105532,1.74744224 C14.6798931,0.642410289 19.5249108,3.33641398 21.2449403,7.87557839 Z M15.9798995,11.7502562 C16.4461499,11.7502562 16.8241206,12.1282268 16.8241206,12.5944773 C16.8241206,15.3253727 14.6102924,17.5392009 11.879397,17.5392009 C9.14850155,17.5392009 6.93467337,15.3253727 6.93467337,12.5944773 C6.93467337,12.1282268 7.31264404,11.7502562 7.77889448,11.7502562 C8.24514492,11.7502562 8.62311559,12.1282268 8.62311559,12.5944773 C8.62311559,14.3928718 10.0810024,15.8507587 11.879397,15.8507587 C13.6777916,15.8507587 15.1356784,14.3928718 15.1356784,12.5944773 C15.1356784,12.1282268 15.5136491,11.7502562 15.9798995,11.7502562 Z" id="形状结合" fill="#333333" fill-rule="nonzero"></path>
            </g>
        </g>
    </g>
</svg>