<?xml version="1.0" encoding="UTF-8"?>
<svg width="24px" height="24px" viewBox="0 0 24 24" version="1.1" xmlns="http://www.w3.org/2000/svg" xmlns:xlink="http://www.w3.org/1999/xlink">
    <title>矩形</title>
    <g id="页面-1" stroke="none" stroke-width="1" fill="none" fill-rule="evenodd">
        <g id="享购严选" transform="translate(-297.000000, -32.000000)">
            <g id="编组" transform="translate(297.000000, 32.000000)">
                <rect id="矩形" fill="#D8D8D8" opacity="0" x="0" y="0" width="24" height="24"></rect>
                <g transform="translate(1.500000, 2.000000)" fill="#333333" fill-rule="nonzero" id="形状结合">
                    <path d="M6.82927743,17.8542734 C7.6991259,17.8542734 8.40427742,18.5594249 8.40427742,19.4292734 C8.40427742,20.2991219 7.6991259,21.0042734 6.82927743,21.0042734 C5.95942895,21.0042734 5.25427743,20.2991219 5.25427743,19.4292734 C5.25427743,18.5594249 5.95942895,17.8542734 6.82927743,17.8542734 Z M16.2792774,17.8542734 C17.1491259,17.8542734 17.8542774,18.5594249 17.8542774,19.4292734 C17.8542774,20.2991219 17.1491259,21.0042734 16.2792774,21.0042734 C15.409429,21.0042734 14.7042774,20.2991219 14.7042774,19.4292734 C14.7042774,18.5594249 15.409429,17.8542734 16.2792774,17.8542734 Z M2.65657744,0.00422570182 C3.06915792,-9.2592729e-05 3.42382368,0.295833041 3.49342743,0.702523377 L3.91972743,3.36532339 L18.4653774,3.36532339 C19.8681774,3.36532339 21.0042774,4.47517337 21.0042774,5.84332338 C21.0042774,5.97142337 20.9937774,6.09952337 20.9727774,6.22657339 L19.8923274,12.9623234 C19.6340274,14.5677734 18.2154774,15.7542734 16.5480774,15.7542734 L7.10332744,15.7542734 C5.43592744,15.7542734 4.01737743,14.5698734 3.75907744,12.9612734 L3.13327743,9.06787338 C3.11769159,9.02277703 3.10609703,8.9763988 3.09862744,8.92927339 L1.93312744,1.65592338 L0.850577428,1.65592338 C0.628904342,1.65872571 0.415199001,1.57334493 0.256483124,1.41856741 C0.0977672475,1.26378989 0.00704477456,1.0522969 0.00427742785,0.830623374 C0.00427742785,0.373873393 0.38227744,0.00422570182 0.850577428,0.00422570182 L2.65657744,0.00422570182 Z M18.4653774,5.01697339 L4.19692742,5.01697339 L5.43172743,12.7061234 C5.56087744,13.5104234 6.26962743,14.1026234 7.10332744,14.1026234 L16.5480774,14.1026234 C17.3817774,14.1026234 18.0915774,13.5104234 18.2207274,12.7061234 L19.3022274,5.97142337 C19.3365212,5.73020352 19.2638498,5.4860278 19.1032368,5.30281602 C18.9426238,5.11960424 18.7100607,5.01559784 18.4664274,5.0180234 L18.4653774,5.01697339 Z"></path>
                </g>
            </g>
        </g>
    </g>
</svg>