<?xml version="1.0" encoding="UTF-8"?>
<svg width="24px" height="24px" viewBox="0 0 24 24" version="1.1" xmlns="http://www.w3.org/2000/svg" xmlns:xlink="http://www.w3.org/1999/xlink">
    <title>矩形</title>
    <g id="页面-1" stroke="none" stroke-width="1" fill="none" fill-rule="evenodd">
        <g id="云上服务" transform="translate(-336.000000, -32.000000)">
            <g id="编组备份" transform="translate(336.000000, 32.000000)">
                <rect id="矩形" fill="#D8D8D8" opacity="0" x="0" y="0" width="24" height="24"></rect>
                <path d="M4.65859375,11.0042969 C5.56986359,11.0042969 6.30859375,11.743027 6.30859375,12.6542969 C6.30859375,13.5655667 5.56986359,14.3042969 4.65859375,14.3042969 C3.74732391,14.3042969 3.00859375,13.5655667 3.00859375,12.6542969 C3.00859375,11.743027 3.74732391,11.0042969 4.65859375,11.0042969 Z M18.9585937,11.0042969 C19.8698636,11.0042969 20.6085937,11.743027 20.6085937,12.6542969 C20.6085937,13.5655667 19.8698636,14.3042969 18.9585937,14.3042969 C18.0473239,14.3042969 17.3085937,13.5655667 17.3085937,12.6542969 C17.3085937,11.743027 18.0473239,11.0042969 18.9585937,11.0042969 Z M11.8085937,11.0042969 C12.7198636,11.0042969 13.4585937,11.743027 13.4585937,12.6542969 C13.4585937,13.2437851 13.1441055,13.7884947 12.6335938,14.0832388 C12.123082,14.377983 11.4941055,14.377983 10.9835937,14.0832388 C10.473082,13.7884947 10.1585937,13.2437851 10.1585937,12.6542969 C10.1585937,11.743027 10.8973239,11.0042969 11.8085937,11.0042969 Z" id="形状结合" fill="#333333" fill-rule="nonzero"></path>
            </g>
        </g>
    </g>
</svg>